# xmcd
# Track frame offsets:
# 150
# 14777
# 32510
# 50177
# 67300
# 82507
# 96702
# 114897
# 125972
# 136285
# 151730
# 169115
# 186435
# 201355
# 219192
# 234087
#
# Disc length: 3494 seconds
# Revision: 0
# Processed by: cddbd v1.5.1PL2 Copyright (c) Steve Scherf et al.
# Submitted via: VisiTrax 2.10.0.248 - For more info visit www.synapsa.com
#
DISCID=e30da410
DTITLE=Various Artist - The Winners 2005 [CD 01]
DYEAR=2004
DGENRE=
TTITLE0=Slim Dusty - Answer To Billy
TTITLE1=Kasey Chambers - Like A River
TTITLE2=Adam Brand - Get Loud
TTITLE3=Melinda Schneider - Real People
TTITLE4=Greame Conners - I Dream Of Highways
TTITLE5=Troy Casser-Daley - Factory Man
TTITLE6=Bella - About a Girl
TTITLE7=Tommy Emmanuel - Tall Fiddler
TTITLE8=Tracy Coster - Back To the Saltbush Plains
TTITLE9=The Flood - Australian For Broken Heart
TTITLE10=Carla Herrod - Out All Night
TTITLE11=Adam Harvey - Thats What you Call A Friend
TTITLE12=Davidson Brothers - Hunter Valley Breakdown
TTITLE13=Keith Jamieson - Picture Of Australia
TTITLE14=Felicity Urquhart - Turn Out The Light
TTITLE15=Fisk and Cristian - The Big Picture
EXTD=
EXTT0=
EXTT1=
EXTT2=
EXTT3=
EXTT4=
EXTT5=
EXTT6=
EXTT7=
EXTT8=
EXTT9=
EXTT10=
EXTT11=
EXTT12=
EXTT13=
EXTT14=
EXTT15=
PLAYORDER=
